<svg height="30cm" viewBox="-20 -20 40 40" width="30cm" xmlns="http://www.w3.org/2000/svg">
<path d="M0,0 L1,0 M1,0 L2,1 M2,1 L2,2 M2,2 L1,3 M1,3 L0,3 M0,3 L-1,2 M-1,2 L-1,1 M-1,1 L0,0 M1,0 L2,-1 M2,1 L3,1 M2,2 L3,3 M1,3 L1,4 M0,3 L-1,4 M-1,2 L-2,2 M-1,1 L-2,0 M0,0 L0,-1 M2,-1 L3,-1 M3,1 L4,2 M3,3 L3,4 M1,4 L0,5 M-1,4 L-2,4 M-2,2 L-3,1 M-2,0 L-2,-1 M0,-1 L1,-2 M2,-1 L2,-2 M3,1 L4,0 M3,3 L4,3 M1,4 L2,5 M-1,4 L-1,5 M-2,2 L-3,3 M-2,0 L-3,0 M0,-1 L-1,-2 M3,-1 L4,0 M4,2 L4,3 M3,4 L2,5 M0,5 L-1,5 M-2,4 L-3,3 M-3,1 L-3,0 M-2,-1 L-1,-2 M1,-2 L2,-2 z" fill="none" stroke="black" stroke-width="0.1"/>
</svg>