<?xml version="1.0" encoding="UTF-8" standalone="no"?>
<svg
   viewBox="-40 -40 815.99998 1056"
   version="1.1"
   id="svg1"
   sodipodi:docname="image_2.svg"
   inkscape:version="1.4.4 (dcaf3e7d9e, 2026-05-05)"
   width="215.89999mm"
   height="279.39999mm"
   xmlns:inkscape="http://www.inkscape.org/namespaces/inkscape"
   xmlns:sodipodi="http://sodipodi.sourceforge.net/DTD/sodipodi-0.dtd"
   xmlns="http://www.w3.org/2000/svg"
   xmlns:svg="http://www.w3.org/2000/svg">
  <defs
     id="defs1" />
  <sodipodi:namedview
     id="namedview1"
     pagecolor="#ffffff"
     bordercolor="#000000"
     borderopacity="0.25"
     inkscape:showpageshadow="2"
     inkscape:pageopacity="0.0"
     inkscape:pagecheckerboard="0"
     inkscape:deskcolor="#d1d1d1"
     inkscape:zoom="1.1003788"
     inkscape:cx="407.58691"
     inkscape:cy="527.99999"
     inkscape:window-width="2560"
     inkscape:window-height="1371"
     inkscape:window-x="0"
     inkscape:window-y="0"
     inkscape:window-maximized="1"
     inkscape:current-layer="svg1"
     showguides="false"
     inkscape:document-units="cm" />
  <path
     style="baseline-shift:baseline;display:inline;overflow:visible;opacity:1;vector-effect:none;stroke-width:25;enable-background:accumulate;stop-color:#000000;stop-opacity:1"
     d="m 205.20765,265.51005 -1.7578,1.75782 24.12108,24.12108 -23.73046,23.73048 h -24.51172 v 2.53906 h 23.73046 v 23.24218 l -24.60936,24.60938 1.7578,1.7578 24.1211,-24.12108 21.97266,21.97266 h -21.97266 v 2.53906 h 23.73046 v 23.24218 l -11.23046,11.23048 -11.6211,-11.6211 -1.7578,1.7578 11.62108,11.6211 -11.62108,11.6211 1.7578,1.75782 11.6211,-11.6211 10.74218,10.74218 -23.73046,23.73048 h -24.51172 v 2.53906 h 23.73046 v 23.24218 l -24.60936,24.60938 1.7578,1.7578 24.1211,-24.12108 23.73046,23.73046 v 24.51172 24.51172 l -24.21874,24.21876 h -24.51172 v 2.53906 h 23.73046 v 23.24218 l -24.60936,24.60938 1.7578,1.7578 24.1211,-24.12108 23.73046,23.73046 v 24.51172 h 2.53906 v -23.73046 h 23.2422 l 24.60936,24.60936 1.75784,-1.7578 -24.12112,-24.1211 21.97266,-21.97266 v 21.97266 h 2.53906 v -23.73046 h 23.2422 l 11.23046,11.23046 -11.62108,11.6211 1.7578,1.7578 11.6211,-11.62108 11.6211,11.62108 1.7578,-1.7578 -11.6211,-11.6211 10.7422,-10.74218 23.73046,23.73046 v 24.51172 h 2.53906 v -23.73046 h 23.2422 l 24.60938,24.60936 1.7578,-1.7578 -24.1211,-24.1211 23.73048,-23.73046 h 24.51172 24.51172 l 24.21874,24.21874 v 24.51172 h 2.53906 v -23.73046 h 23.2422 l 24.60936,24.60936 1.75784,-1.7578 -24.12112,-24.1211 23.73048,-23.73046 h 24.51172 v -2.53906 h -23.73048 v -23.2422 l 24.60938,-24.60936 -1.7578,-1.75782 -24.1211,24.1211 -21.97266,-21.97266 h 21.97266 v -2.53906 h -23.73048 v -23.2422 l 11.23048,-11.23046 11.62108,11.6211 1.75782,-1.75782 -11.6211,-11.6211 11.6211,-11.6211 -1.75782,-1.7578 -11.62108,11.6211 -10.7422,-10.7422 23.73048,-23.73046 h 24.51172 v -2.53906 h -23.73048 v -23.2422 l 24.60938,-24.60936 -1.7578,-1.75782 -24.1211,24.1211 -23.73048,-23.73048 v -24.51172 -24.51172 l 24.21876,-24.21874 h 24.51172 v -2.53906 h -23.73048 v -23.2422 l 24.60938,-24.60936 -1.7578,-1.7578 -24.1211,24.12108 -23.73048,-23.73048 v -24.51172 h -2.53906 v 23.73048 h -23.24218 l -24.60938,-24.60938 -1.75782,1.75782 24.1211,24.12108 -21.97266,21.97266 v -21.97266 h -2.53906 v 23.73048 h -23.24218 l -11.23048,-11.23048 11.6211,-11.62108 -1.7578,-1.75782 -11.6211,11.6211 -11.6211,-11.6211 -1.7578,1.75782 11.62108,11.62108 -10.74218,10.7422 -23.73048,-23.73048 v -24.51172 h -2.53906 v 23.73048 h -23.24218 l -24.60938,-24.60938 -1.7578,1.75782 24.12108,24.12108 -23.73046,23.73048 h -24.51172 -24.51172 l -24.21876,-24.21876 v -24.51172 h -2.53906 v 23.73048 h -23.24218 z m 24.60938,27.14844 h 24.02344 l 24.21874,24.21874 v 23.2422 h -23.24218 l -24.60938,-24.60938 -1.7578,1.7578 24.12108,24.1211 -23.24218,23.2422 -23.73048,-23.73048 v -24.02344 z m 125,0 h 24.02344 l 24.21874,24.21874 v 24.02344 l -23.73046,23.73048 -23.73048,-23.73048 v -24.51172 h -2.53906 v 23.73048 h -22.46094 v -23.2422 z m 125,0 h 24.02344 l 24.21874,24.21874 v 24.02344 l -24.21874,24.21876 h -23.2422 v -23.2422 l 24.60938,-24.60936 -1.7578,-1.7578 -24.1211,24.12108 -23.2422,-23.2422 z m -62.98828,12.98828 10.74218,10.74218 -21.97266,21.97266 v -21.48438 z m -136.23048,12.01172 h 23.2422 l 23.73046,23.73046 -23.24218,23.2422 -23.73048,-23.73048 z m 26.75782,0 h 20.70312 v 20.70312 z m 122.46094,0 h 24.02344 l 24.21874,24.21874 v 24.02344 l -24.21874,24.21876 h -23.2422 v -23.2422 l 24.60938,-24.60936 -1.75782,-1.75782 -24.12108,24.1211 -23.2422,-23.2422 z m -175,25 h 24.02344 l 24.21874,24.21874 v 23.2422 h -23.24218 l -24.60938,-24.60938 -1.7578,1.7578 24.12108,24.1211 -23.24218,23.2422 -23.73048,-23.73048 v -24.02344 z m 75,0 h 24.02344 l 24.21874,24.21874 v 24.02344 l -24.60936,24.60938 -22.85158,22.85156 v -21.48438 l 24.60938,-24.60938 -1.7578,-1.7578 -24.1211,24.1211 -23.73048,-23.73048 v -24.02344 z m 74.51172,0.4883 23.73046,23.73046 v 24.02344 l -24.21874,24.21876 h -24.51172 -21.97266 l 22.46094,-22.46094 h 24.51172 v -2.53906 h -23.73048 v -23.2422 z m 75.48828,24.51172 h 23.24218 v 23.24218 l -23.73046,23.73046 -23.2422,-23.2422 z m -200,25 h 24.02344 l 24.21874,24.21874 v 24.51172 21.97266 l -22.46094,-22.46094 v -24.51172 h -2.53906 v 23.73048 h -23.24218 l -23.73048,-23.73048 z m 150,0 h 24.02344 l 24.21874,24.21874 v 24.02344 l -24.21874,24.21874 h -24.02344 l -24.60938,-24.60938 -22.85156,-22.85156 h 21.48438 l 24.60938,24.60936 1.7578,-1.7578 -24.1211,-24.1211 z m -200.48828,0.48826 21.97266,21.97266 h -21.48438 l -11.23048,-11.23048 z m 273.73046,1.26952 v 20.70312 h -20.70312 z m -273.24218,23.2422 h 24.02344 l 23.73046,23.73046 -23.73046,23.73048 h -24.51172 v 2.53906 h 23.73046 v 22.46094 h -23.24218 l -24.21876,-24.21876 v -24.02344 z m 125,0 h 24.02344 l 24.21874,24.21874 v 24.02344 l -24.21874,24.21874 h -24.02344 l -24.21876,-24.21874 v -24.02344 z m 125.78124,0 h 23.2422 l 24.21874,24.21874 v 24.02344 l -24.21874,24.21874 h -24.02344 l -23.73048,-23.73046 23.73048,-23.73046 h 24.51172 v -2.53906 h -23.73048 z m -200.78124,24.99998 h 24.02344 l 24.60938,24.60938 22.85156,22.85156 h -21.48438 l -24.60938,-24.60936 -1.7578,1.7578 24.12108,24.1211 -23.73046,23.73048 h -24.02344 l -24.21876,-24.21876 v -24.02344 z m 125.78124,1.75782 22.46094,22.46094 v 24.51172 h 2.53906 v -23.73046 h 23.2422 l 23.73046,23.73046 -23.73046,23.73048 h -24.02344 l -24.21876,-24.21876 v -24.51172 z m -2.53906,25 v 21.48438 l -24.60938,24.60938 1.75782,1.75782 24.1211,-24.1211 23.73046,23.73046 v 24.02344 l -24.21874,24.21876 h -24.02344 l -24.21876,-24.21876 v -24.02344 l 24.60938,-24.60938 z m -172.46094,23.2422 h 20.70314 l -20.70314,20.70312 z m 99.21876,0 h 24.51172 21.97266 l -22.46094,22.46094 h -24.51172 v 2.53906 h 23.73046 v 23.24218 l -23.73046,23.73048 -23.73048,-23.73048 v -24.02344 z m 152.53906,0 h 21.48438 l 11.23046,11.23046 -10.74218,10.7422 z m -228.02734,0.48828 23.24218,23.24218 -23.73046,23.73048 h -23.2422 v -23.2422 z m 225,0 23.73046,23.73046 v 24.02344 l -24.21874,24.21876 h -24.02344 l -24.21876,-24.21876 v -23.24218 h 23.2422 l 24.60936,24.60938 1.7578,-1.7578 -24.12108,-24.12112 z m -199.51172,24.51172 h 23.24218 v 23.24218 l -24.60938,24.60938 1.75784,1.7578 24.12108,-24.12108 23.24218,23.24218 -23.73046,23.73048 h -24.02344 l -24.21876,-24.21876 v -24.02344 z m -50,25 h 23.24218 v 23.24218 l -24.60936,24.60938 1.7578,1.7578 24.1211,-24.12108 23.24218,23.24218 -23.73046,23.73048 h -24.02344 l -24.21876,-24.21876 v -24.02344 z m 124.51172,0.4883 23.73046,23.73046 v 24.5117 h 2.53906 v -23.73046 h 22.46094 v 23.24218 l -24.21874,24.21876 h -24.02344 l -24.21876,-24.21876 v -24.02344 z m 75,0 23.73046,23.73046 v 23.2422 h -23.24218 l -23.73048,-23.7305 z m 75,0 23.73046,23.73046 v 24.02344 l -24.21874,24.21876 h -24.02344 l -24.21876,-24.21876 v -23.24218 h 23.2422 l 24.60936,24.60936 1.7578,-1.7578 -24.12108,-24.12112 z m -176.26954,26.26952 v 21.48438 l -11.23046,11.23046 -10.7422,-10.7422 z m 77.53906,0 20.70314,20.70314 h -20.70314 z"
     id="path1" />
</svg>
